<svg width="600" height="400" viewBox="0 0 120 80" fill="none" xmlns="http://www.w3.org/2000/svg">
  <path width="120" height="80" rx="4" fill="transparent" d="M4 0H116A4 4 0 0 1 120 4V76A4 4 0 0 1 116 80H4A4 4 0 0 1 0 76V4A4 4 0 0 1 4 0z"/>
  <path fill-rule="evenodd" clip-rule="evenodd" d="M78.333 35.474c0.685 0 1.336 0.135 1.885 0.405 0.582 0.27 1.062 0.641 1.473 1.08 0.412 0.472 0.72 1.012 0.925 1.62 0.206 0.607 0.343 1.248 0.343 1.957 0 0.878 -0.137 1.688 -0.377 2.43 -0.274 0.743 -0.617 1.384 -1.13 1.924 -0.48 0.54 -1.063 0.979 -1.748 1.282a5.733 5.733 0 0 1 -2.33 0.473c-0.446 0 -0.823 0 -1.132 -0.034a3.101 3.101 0 0 1 -0.925 -0.236v4.32h-3.289V36.351c0 -0.169 0.068 -0.337 0.171 -0.438 0.137 -0.136 0.274 -0.203 0.445 -0.203h2.673v0.844a5.514 5.514 0 0 1 1.303 -0.777c0.48 -0.202 1.062 -0.303 1.713 -0.303Zm20.492 0.034 3.461 6.648 2.844 -6.243c0.069 -0.136 0.137 -0.237 0.274 -0.304a0.921 0.921 0 0 1 0.411 -0.101h1.885l-5.483 12.015c-1.336 3.273 -4.523 2.8 -5.105 2.8v-1.822h0.184c0.578 -0.002 1.807 -0.048 2.386 -0.709 0.136 -0.168 0.308 -0.472 0.376 -0.675 0.103 -0.202 0.172 -0.37 0.275 -0.54l0.377 -0.877 -5.38 -10.192h3.495Zm-29.505 0.37v10.8h-3.426V36.42c0 -0.168 0.034 -0.237 0.171 -0.371 0.137 -0.135 0.309 -0.17 0.48 -0.17h2.775Zm22.446 -0.033c1.151 0.324 2.429 1.177 2.53 2.588l0.005 0.18v7.796H90.91v-0.405c-4.078 1.788 -6.545 -0.608 -6.545 -3.173 0 -1.485 1.062 -3.78 4.044 -3.746 0.628 0.028 1.399 0.103 2.095 0.166l0.406 0.037v-0.574c0 -1.856 -0.823 -2.43 -5.174 -1.688 -0.103 -0.27 -0.206 -0.742 -0.309 -1.012 2.742 -0.709 4.763 -0.608 6.34 -0.169Zm-28.614 -4.05v14.513h-3.46V32.403c0 -0.17 0.068 -0.304 0.205 -0.44 0.137 -0.134 0.308 -0.168 0.48 -0.168h2.775Zm-11.617 0 6.786 14.513h-3.633l-1.13 -2.363h-6.991l-1.234 2.363H42.9l6.888 -14.04a0.96 0.96 0 0 1 0.308 -0.338 0.66 0.66 0 0 1 0.347 -0.13l0.099 -0.005h0.993Zm26.044 5.738c-0.205 0 -0.411 0.033 -0.617 0.1a1.753 1.753 0 0 0 -0.548 0.305 5.87 5.87 0 0 0 -0.514 0.438 3.43 3.43 0 0 0 -0.446 0.54v4.793c0 0.27 0.035 0.506 0.138 0.742 0.102 0.237 0.24 0.44 0.41 0.608 0.172 0.169 0.412 0.303 0.652 0.405 0.24 0.101 0.548 0.135 0.822 0.135 0.274 0 0.549 -0.101 0.788 -0.27 0.24 -0.203 0.48 -0.439 0.651 -0.776 0.171 -0.338 0.343 -0.743 0.446 -1.215 0.103 -0.473 0.171 -0.98 0.171 -1.52 0 -0.708 -0.034 -1.316 -0.137 -1.855a5.777 5.777 0 0 0 -0.411 -1.35c-0.171 -0.372 -0.377 -0.642 -0.617 -0.81a1.385 1.385 0 0 0 -0.788 -0.27Zm11.754 3.07c-1.234 0.102 -2.228 1.08 -2.228 2.363s0.994 2.33 2.228 2.363c0.555 0 1.027 -0.192 1.415 -0.525l0.127 -0.116v-3.814c-0.274 -0.169 -0.754 -0.338 -1.542 -0.27ZM50.165 36.52l-3.153 6.412h6.168l-3.015 -6.412Z" fill="#3E3A39"/>
  <path fill-rule="evenodd" clip-rule="evenodd" d="M69.45 32.695c0 1 -0.792 1.8 -1.8 1.8s-1.8 -0.8 -1.8 -1.8 0.792 -1.8 1.8 -1.8 1.8 0.8 1.8 1.8Z" fill="#00A0E9"/>
  <path fill-rule="evenodd" clip-rule="evenodd" d="M34.036 26.635c2.285 0 4.133 1.909 4.133 4.27v13.782s-0.84 -0.07 -4.536 -1.354a341.763 341.763 0 0 1 -3.964 -1.493c0.94 -1.666 1.68 -3.576 2.15 -5.624h-5.073v-1.91h6.215v-1.04h-6.215v-3.16h-2.553c-0.437 0 -0.437 0.452 -0.437 0.452v2.707h-6.282v1.042h6.249v1.91h-5.207v1.04h10.078a19.8 19.8 0 0 1 -1.445 3.68c-3.258 -1.11 -6.752 -2.013 -8.936 -1.458 -1.377 0.348 -2.284 1.007 -2.822 1.666 -2.419 3.055 -0.672 7.707 4.468 7.707 3.024 0 5.947 -1.77 8.23 -4.617 3.394 1.701 10.08 4.583 10.08 4.583v0.277c0 2.36 -1.848 4.27 -4.166 4.27h-17.57c-2.285 0 -4.133 -1.91 -4.133 -4.304V30.905c0 -2.361 1.848 -4.27 4.133 -4.27h17.603ZM19.421 39.938c2.393 -0.261 4.65 0.707 7.28 2.085 -1.854 2.57 -4.213 4.172 -6.572 4.172 -4.078 0 -5.291 -3.427 -3.27 -5.29 0.675 -0.632 1.888 -0.93 2.562 -0.967Z" fill="#00A0E9"/>
</svg>

