<svg width="600" height="400" viewBox="0 0 600 400" fill="none" xmlns="http://www.w3.org/2000/svg">
  <path width="120" height="80" rx="4" fill="transparent" d="M20 0H580A20 20 0 0 1 600 20V380A20 20 0 0 1 580 400H20A20 20 0 0 1 0 380V20A20 20 0 0 1 20 0z"/>
  <path d="M366.2 282.875c0.77 -0.13 2.225 -0.305 4.35 -0.305 5.765 0 9.07 2.725 9.07 7.48 0 5.13 -3.48 8.07 -9.55 8.07 -1.18 0 -2.665 -0.04 -3.87 -0.35v-14.9Zm4.45 -3.83c-2.62 0 -5.25 0.235 -7.825 0.7l-0.575 0.1v36.675h3.95V301.4c1.065 0.2 2.245 0.245 3.655 0.245 4.74 0 8.66 -1.5 11.04 -4.215 1.8 -1.975 2.675 -4.475 2.675 -7.645 0 -3.09 -1.025 -5.695 -2.97 -7.515 -2.165 -2.11 -5.6 -3.225 -9.95 -3.225Z" fill="#222222"/>
  <path d="m429.46 289.615 -6.385 16.975a97.85 97.85 0 0 0 -1.345 3.79c-0.4 -1.24 -0.85 -2.5 -1.285 -3.64l-6.69 -16.68 -0.175 -0.445h-4.225l9.85 24.605a3.335 3.335 0 0 1 0.265 0.86 3.35 3.35 0 0 1 -0.265 0.845 19.42 19.42 0 0 1 -4.095 6.2c-1.6 1.535 -3.33 2.325 -4.22 2.66l-0.715 0.265 1.87 3.225 0.38 -0.14c0.67 -0.255 2.45 -1.03 4.43 -2.7 3.4 -2.96 5.545 -7.465 8.8 -15.835l8.045 -19.985h-4.24Z" fill="#222222"/>
  <path d="M400.82 307.64a3.69 3.69 0 0 1 -0.225 1.315c-0.765 2.235 -2.975 4.625 -6.88 4.625 -2.035 0 -4.405 -1.205 -4.405 -4.61 0 -1.47 0.48 -2.685 1.43 -3.605 1.72 -1.67 4.95 -2.515 9.595 -2.515h0.48l0.005 4.79Zm3.95 2.125v-9.99c0 -7.03 -3.29 -10.74 -9.515 -10.74 -2.6 0 -5.425 0.785 -7.57 2.1l-0.4 0.25 1.7 2.935 0.425 -0.26c1.55 -0.97 3.535 -1.5 5.575 -1.5h0.095c1.75 0 3.12 0.47 4.055 1.4 1.135 1.12 1.685 2.88 1.685 5.375 -6.1 0.02 -10.5 1.33 -13.09 3.9 -1.645 1.62 -2.475 3.695 -2.475 6.16 0 3.715 2.565 7.71 8.19 7.71a10.45 10.45 0 0 0 7.755 -3.285l0.27 2.7h3.8l-0.135 -0.81a37.365 37.365 0 0 1 -0.365 -5.945Z" fill="#222222"/>
  <path d="m200.6 299.95 -0.8 2.84c-0.665 2.36 -1.255 4.45 -1.765 6.51 -0.65 -3.04 -1.55 -6.44 -2.355 -9.44l-5.355 -20.195 -0.1 -0.355h-3.51l-5.985 20.685c-1.075 3.5 -2.025 6.65 -2.69 9.42 -0.515 -2.185 -1.13 -4.62 -1.78 -7.18l-5.81 -22.57 -0.095 -0.355h-4.05l9.73 36.85 0.095 0.365h3.45l6.265 -21.115c1.09 -3.6 1.915 -6.43 2.51 -8.9 0.53 2.61 1.27 5.475 2.2 8.875l5.405 20.78 0.1 0.36h3.5l10.97 -36.595 0.19 -0.62h-4.075l-6.05 20.645Z" fill="#222222"/>
  <path d="M214.66 299.55c0.985 -5.54 4.62 -7.525 7.74 -7.525 1.975 0 3.565 0.6 4.72 1.775 1.71 1.735 2.1 4.25 2.165 5.75h-14.625Zm8.06 -11.05c-7.285 0 -12.175 5.835 -12.175 14.515 0 8.08 5.06 13.51 12.6 13.51 4.735 0 7.43 -1.22 8.365 -1.74l0.575 -0.32 -1.705 -2.955 -0.4 0.185c-1.335 0.615 -3.15 1.25 -6.515 1.25 -5.52 0 -8.8 -3.63 -9.015 -9.975h18.66l0.12 -0.55c0.125 -0.55 0.125 -0.95 0.125 -1.69 0 -0.995 -0.14 -4.47 -1.935 -7.495 -1.87 -3.145 -4.8 -4.735 -8.7 -4.735Z" fill="#222222"/>
  <path d="M264.02 311.605c-1.95 0.9 -4.7 1.44 -7.335 1.44 -8.775 0 -14.015 -5.55 -14.015 -14.845 0 -9.65 5.395 -15.41 14.43 -15.41 2.5 0 4.875 0.47 6.69 1.325l0.395 0.18 1.765 -3.055 -0.53 -0.295c-0.7 -0.38 -3.36 -1.63 -8.37 -1.63 -10.955 0 -18.32 7.57 -18.32 18.835 0 13.555 9.23 18.37 17.13 18.37 4.455 0 7.925 -0.95 9.695 -1.825l0.57 -0.29 -1.715 -2.975 -0.39 0.175Z" fill="#222222"/>
  <path d="M284.35 289.035c-1.99 0 -3.9 0.55 -5.505 1.58a9.465 9.465 0 0 0 -2.51 2.125v-14.015h-3.95v37.8h3.95V300.25c0 -0.975 0.04 -1.6 0.28 -2.32 1.1 -3.1 4 -5.27 7.045 -5.27 5.495 0 6.31 5.05 6.31 8.07v15.79h3.95v-16.06c0 -10.88 -7.975 -11.43 -9.57 -11.43Z" fill="#222222"/>
  <path d="M331.47 283.89h-3.95v5.975h-4.3v3.225h4.3v15.4c0 3.07 0.57 5.215 1.74 6.54 1.06 1.36 2.76 2.075 4.91 2.075 1.495 0 2.785 -0.235 3.845 -0.695l0.63 -0.275 -1.655 -2.875 -0.345 0.075c-0.6 0.13 -1.32 0.195 -2.15 0.195 -2.12 0 -3.025 -1.365 -3.025 -4.56v-15.88h7.28v-3.225h-7.28v-5.975Z" fill="#222222"/>
  <path d="M305.89 305.36c1.715 -1.665 4.95 -2.51 9.595 -2.51h0.48l0.01 4.79a3.66 3.66 0 0 1 -0.23 1.315c-0.765 2.235 -2.97 4.63 -6.885 4.63 -2.03 0 -4.4 -1.21 -4.4 -4.615 0 -1.47 0.48 -2.685 1.43 -3.605Zm14.03 4.4v-9.985c0 -7.025 -3.29 -10.74 -9.52 -10.74 -2.75 0 -5.7 0.85 -7.87 2.285l-0.41 0.25 1.715 2.965 0.43 -0.29c1.6 -1.09 3.685 -1.69 5.87 -1.69h0.09c1.76 0 3.12 0.475 4.06 1.4 1.135 1.125 1.685 2.885 1.69 5.38 -6.1 0.02 -10.51 1.33 -13.1 3.895 -1.64 1.625 -2.47 3.7 -2.47 6.165 0 3.715 2.56 7.71 8.19 7.71 3.925 0 6.435 -1.9 7.75 -3.285l0.275 2.7h3.795l-0.13 -0.805a37.525 37.525 0 0 1 -0.365 -5.95Z" fill="#222222"/>
  <path d="M273.935 178.45a6.35 6.35 0 0 1 -8.43 -2.57l-0.42 -0.915 -17.405 -38.2a3.19 3.19 0 0 1 4.79 -3.9l20.54 14.63a9.52 9.52 0 0 0 8.495 0.97l96.6 -43c-17.315 -20.405 -45.83 -33.74 -78.1 -33.74 -52.815 0 -95.62 35.675 -95.62 79.68 0 24.015 12.875 45.625 33.035 60.235 1.62 1.15 2.675 3.05 2.675 5.19 0 0.705 -0.15 1.355 -0.335 2.03l-4.31 16.075c-0.2 0.75 -0.51 1.54 -0.51 2.33 0 1.76 1.425 3.185 3.185 3.185a3.595 3.595 0 0 0 1.84 -0.595l20.935 -12.085a10.025 10.025 0 0 1 5.08 -1.47c0.975 0 1.92 0.15 2.81 0.42 9.765 2.81 20.3 4.37 31.21 4.37 52.81 0 95.62 -35.675 95.62 -79.685 0 -13.325 -3.95 -25.88 -10.89 -36.92L274.63 178.05l-0.7 0.4Z" fill="#14AB39"/>
</svg>

